<?xml version="1.0" standalone="no"?>
<!DOCTYPE svg PUBLIC "-//W3C//DTD SVG 20010904//EN"
 "http://www.w3.org/TR/2001/REC-SVG-20010904/DTD/svg10.dtd">
<svg version="1.0" xmlns="http://www.w3.org/2000/svg"
 width="1080.000000pt" height="1080.000000pt" viewBox="0 0 1080.000000 1080.000000"
 preserveAspectRatio="xMidYMid meet">
<metadata>
Created by potrace 1.14, written by Peter Selinger 2001-2017
</metadata>
<g transform="translate(0.000000,1080.000000) scale(0.100000,-0.100000)"
fill="#000000" stroke="none">
<path d="M0 5400 l0 -5400 5400 0 5400 0 0 5400 0 5400 -5400 0 -5400 0 0
-5400z m5840 3616 c693 -101 1298 -396 1760 -857 90 -90 256 -281 300 -346 8
-11 40 -56 71 -100 215 -303 404 -703 498 -1054 143 -535 133 -1095 -29 -1656
-99 -343 -257 -675 -448 -943 -312 -436 -735 -780 -1276 -1039 -59 -28 -109
-51 -112 -51 -3 0 -24 -9 -47 -19 -121 -55 -509 -171 -572 -171 l-25 0 0 370
0 369 43 11 c324 84 706 288 979 522 404 348 677 802 781 1298 35 163 42 248
42 485 0 379 -50 629 -191 954 -257 591 -694 1057 -1214 1290 -602 271 -1339
278 -1945 18 -308 -132 -551 -300 -780 -538 -334 -348 -557 -797 -639 -1289
-103 -619 48 -1230 448 -1815 161 -236 406 -472 652 -628 197 -125 395 -210
687 -293 16 -5 17 -30 15 -382 l-3 -377 -30 3 c-112 11 -448 112 -645 192
-491 202 -950 559 -1248 970 -18 25 -47 65 -66 90 -59 82 -205 330 -266 454
-171 350 -255 639 -315 1081 -3 22 -8 132 -11 245 -17 533 87 1004 326 1475
178 353 355 593 630 858 231 223 490 399 840 572 325 161 681 267 1045 311
146 17 599 11 745 -10z m855 -3454 l0 -373 -415 -2 -415 -2 -5 -1535 -5 -1535
-455 0 -455 0 -3 1533 c-2 1214 -5 1532 -15 1533 -6 1 -19 3 -27 4 -8 1 -189
3 -402 4 l-388 1 0 368 c0 203 3 372 7 375 3 4 585 6 1292 5 l1286 -3 0 -373z
m479 334 c113 -47 128 -233 23 -296 -75 -46 -152 -38 -213 24 -135 135 13 346
190 272z m-2354 -1576 c0 -368 -1 -670 -3 -670 -13 0 -154 46 -239 78 -243 92
-459 224 -670 411 l-38 33 0 409 0 409 475 0 475 0 0 -670z m-865 -1379 c253
-119 561 -222 795 -264 l65 -12 5 -345 5 -345 603 -3 602 -2 0 -395 0 -395
-1080 0 -1080 0 0 901 c0 495 3 899 8 897 4 -2 39 -18 77 -37z"/>
<path d="M5375 8826 l-27 -85 -97 -3 -96 -3 60 -39 c102 -65 98 -55 64 -154
-16 -47 -29 -88 -29 -90 0 -2 19 11 43 28 23 18 59 43 79 57 l37 25 68 -49
c38 -28 73 -53 80 -57 6 -3 -4 33 -23 81 -19 48 -34 90 -34 93 0 3 37 28 82
55 l82 50 -99 5 -98 5 -26 77 c-14 42 -29 80 -33 83 -4 4 -19 -32 -33 -79z"/>
<path d="M4589 8693 c-11 -3 -22 -37 -38 -124 l-24 -121 -86 86 c-70 70 -90
84 -108 80 -13 -4 -23 -9 -23 -13 0 -3 47 -53 104 -110 100 -99 105 -107 126
-177 19 -66 24 -74 46 -74 29 0 30 10 4 85 -26 74 -25 91 5 231 33 152 33 148
-6 137z"/>
<path d="M6420 8473 c-47 -97 -85 -181 -85 -186 0 -16 168 -87 207 -87 85 0
138 103 85 165 l-24 30 35 1 c47 1 82 41 82 94 0 31 -6 44 -35 69 -37 32 -145
91 -167 91 -7 0 -51 -80 -98 -177z m233 59 c43 -38 -4 -119 -62 -105 -23 5
-99 39 -110 49 -3 2 8 31 24 64 l28 59 51 -26 c28 -14 59 -32 69 -41z m-132
-122 c79 -41 101 -91 60 -141 -25 -31 -72 -29 -139 5 l-52 26 32 65 c18 36 38
65 46 65 7 0 31 -9 53 -20z"/>
<path d="M3980 8459 c-74 -39 -139 -75 -144 -79 -5 -6 -4 -15 4 -24 11 -14 19
-12 68 15 68 37 53 51 158 -154 42 -84 78 -153 80 -155 1 -2 12 1 23 8 21 10
19 16 -64 180 -48 94 -84 174 -81 178 2 4 27 19 55 32 28 13 51 28 51 34 -1
37 -19 33 -150 -35z"/>
<path d="M6905 8209 c-99 -62 -182 -114 -184 -116 -3 -2 2 -11 11 -19 15 -15
21 -13 77 21 l60 37 66 -46 c36 -26 65 -52 65 -58 0 -7 -8 -38 -17 -71 -16
-58 -16 -60 3 -74 17 -12 20 -12 26 4 10 27 108 397 108 410 0 8 -21 23 -34
23 -1 0 -83 -50 -181 -111z m140 -38 c-14 -46 -26 -85 -27 -87 -2 -1 -27 15
-56 36 l-54 38 78 50 c43 28 80 50 81 49 1 -2 -9 -40 -22 -86z"/>
<path d="M3596 8225 c-17 -13 -13 -22 88 -162 149 -208 147 -205 169 -188 18
13 11 25 -108 189 -69 97 -127 176 -128 176 -1 0 -10 -7 -21 -15z"/>
<path d="M7355 7962 c-38 -37 -106 -100 -149 -140 -72 -67 -78 -74 -63 -89 14
-14 19 -13 54 15 21 16 49 42 62 56 l25 26 32 -31 31 -30 -29 -96 c-30 -95
-30 -96 -10 -115 19 -20 20 -19 41 54 41 136 31 123 88 120 41 -3 55 1 80 22
43 36 58 76 44 119 -11 32 -114 157 -129 157 -4 0 -38 -31 -77 -68z m125 -43
c22 -28 40 -60 40 -71 0 -29 -53 -78 -85 -78 -17 0 -42 15 -72 44 l-46 43 59
56 c32 31 60 57 61 57 2 0 21 -23 43 -51z"/>
<path d="M3216 7895 c-19 -14 -12 -23 134 -170 l155 -155 84 84 c72 72 83 87
72 100 -12 14 -22 7 -85 -50 l-71 -65 -132 135 c-72 75 -133 136 -135 136 -2
0 -12 -7 -22 -15z"/>
<path d="M7610 7505 c-114 -73 -165 -110 -164 -122 0 -10 21 -50 47 -89 72
-110 147 -132 212 -64 24 25 27 35 22 69 -5 40 -5 40 16 26 71 -50 165 27 139
113 -11 36 -92 173 -102 171 -3 0 -79 -47 -170 -104z m227 -80 c4 -26 0 -36
-22 -53 -15 -12 -34 -22 -41 -22 -19 0 -67 48 -93 92 l-21 36 57 36 57 36 29
-46 c16 -26 31 -61 34 -79z m-177 -27 c38 -67 39 -109 4 -137 -34 -27 -54 -26
-88 0 -28 22 -76 91 -76 108 0 9 108 80 122 81 4 0 21 -24 38 -52z"/>
<path d="M2917 7543 c-4 -3 -7 -12 -7 -18 0 -10 227 -364 246 -384 3 -3 12 3
21 12 15 15 14 20 -22 74 -21 32 -38 63 -38 69 0 6 21 40 46 76 l47 66 72 -18
c67 -18 72 -18 84 -2 8 9 14 20 14 23 0 5 -425 110 -446 109 -6 0 -14 -3 -17
-7z m153 -67 c47 -13 84 -28 83 -34 -2 -6 -17 -31 -35 -57 -25 -35 -35 -42
-43 -33 -27 30 -105 148 -98 148 4 -1 46 -11 93 -24z"/>
<path d="M2674 7128 c-4 -12 -3 -24 2 -25 5 -2 72 -31 149 -66 125 -55 142
-66 157 -97 22 -45 9 -100 -33 -143 -40 -39 -68 -35 -238 38 -107 46 -135 55
-142 44 -5 -8 -9 -19 -9 -25 0 -14 290 -134 324 -134 31 0 85 26 104 49 65 79
67 187 5 243 -15 14 -293 138 -308 138 -2 0 -7 -10 -11 -22z"/>
<path d="M7867 7046 c-98 -40 -180 -76 -184 -80 -3 -3 7 -39 22 -78 56 -144
54 -139 74 -128 18 9 18 13 -14 94 l-33 83 64 27 c36 14 68 26 73 26 5 0 21
-34 37 -75 19 -50 34 -75 45 -75 28 0 28 10 -2 82 -16 39 -29 76 -29 82 0 6
24 20 53 31 28 11 55 21 58 23 4 2 22 -35 40 -82 19 -47 36 -86 39 -86 3 0 11
4 19 9 13 8 8 26 -26 112 -22 57 -44 104 -49 105 -5 1 -89 -30 -187 -70z"/>
<path d="M8120 6620 c-47 -10 -133 -28 -192 -41 -101 -20 -108 -23 -108 -45 0
-28 5 -28 85 -9 89 22 91 21 99 -27 6 -39 4 -45 -21 -67 -107 -91 -119 -106
-113 -134 5 -27 5 -27 83 44 l78 72 23 -22 c49 -46 132 -44 174 4 16 19 22 38
22 73 -1 60 -23 165 -35 168 -6 1 -48 -6 -95 -16z m79 -77 c22 -76 10 -114
-39 -132 -61 -21 -107 20 -112 99 l-3 44 55 12 c86 18 88 18 99 -23z"/>
<path d="M2522 6513 c-44 -21 -78 -67 -92 -125 -35 -137 48 -238 208 -254 109
-12 190 37 217 130 14 46 20 54 69 80 44 24 55 35 59 60 3 17 3 32 2 34 -2 2
-27 -12 -57 -32 -29 -20 -56 -36 -59 -36 -4 0 -9 12 -12 28 -8 40 -69 97 -123
116 -62 21 -169 21 -212 -1z m225 -62 c50 -25 73 -64 73 -123 0 -89 -58 -142
-154 -141 -74 1 -137 25 -171 65 -50 59 -25 179 45 216 37 20 155 10 207 -17z"/>
<path d="M2604 5738 c-6 -13 -19 -51 -29 -85 l-19 -62 -100 -3 -101 -3 78 -53
c42 -29 77 -56 77 -60 0 -4 -12 -42 -25 -86 -14 -43 -24 -80 -22 -82 2 -2 36
21 76 51 l73 54 74 -54 c41 -30 76 -55 79 -55 2 0 -9 36 -25 81 -17 44 -30 85
-30 90 0 5 33 30 73 56 39 25 76 50 82 55 5 5 -32 7 -90 6 l-100 -3 -31 88
c-27 80 -31 86 -40 65z"/>
<path d="M8144 5676 l-28 -86 -93 0 c-51 0 -93 -3 -93 -7 0 -5 34 -30 74 -56
l74 -48 -29 -86 c-16 -48 -27 -89 -24 -91 3 -3 15 4 28 15 12 11 45 36 73 56
l51 37 73 -56 c40 -30 74 -53 77 -51 2 2 -10 41 -27 86 -16 46 -28 86 -26 90
3 4 36 27 75 51 39 25 71 48 71 53 0 4 -41 7 -91 5 l-92 -3 -28 84 c-16 46
-31 86 -33 88 -2 3 -17 -34 -32 -81z"/>
<path d="M7030 5848 c-129 -88 -21 -285 123 -225 81 34 102 146 39 209 -42 43
-112 50 -162 16z m122 -35 c22 -19 24 -56 3 -73 -13 -11 -13 -15 0 -41 19 -36
19 -39 -4 -39 -11 0 -23 12 -31 30 -7 17 -19 30 -26 30 -9 0 -14 -11 -14 -30
0 -20 -5 -30 -15 -30 -12 0 -15 16 -15 85 l0 85 42 0 c24 0 49 -7 60 -17z"/>
<path d="M7080 5775 c0 -20 5 -25 25 -25 20 0 25 5 25 25 0 20 -5 25 -25 25
-20 0 -25 -5 -25 -25z"/>
</g>
</svg>
